<svg width="17" height="12" viewBox="0 0 17 12" fill="none" xmlns="http://www.w3.org/2000/svg">
  <path
    d="M8.46021 0.666672C4.82384 0.666672 1.71839 2.92849 0.460205 6.12122C1.71839 9.31394 4.82384 11.5758 8.46021 11.5758C12.0966 11.5758 15.202 9.31394 16.4602 6.12122C15.202 2.92849 12.0966 0.666672 8.46021 0.666672ZM8.46021 9.75758C6.45293 9.75758 4.82384 8.12849 4.82384 6.12122C4.82384 4.11394 6.45293 2.48485 8.46021 2.48485C10.4675 2.48485 12.0966 4.11394 12.0966 6.12122C12.0966 8.12849 10.4675 9.75758 8.46021 9.75758ZM8.46021 3.9394C7.25293 3.9394 6.27839 4.91394 6.27839 6.12122C6.27839 7.32849 7.25293 8.30303 8.46021 8.30303C9.66748 8.30303 10.642 7.32849 10.642 6.12122C10.642 4.91394 9.66748 3.9394 8.46021 3.9394Z"
    fill="#A9ABBA"/>
</svg>
