<svg width="18" height="17" viewBox="0 0 18 17" fill="none" xmlns="http://www.w3.org/2000/svg">
  <path opacity="0.8"
        d="M9.55617 7.66096H4.43043C4.20385 7.66096 3.98656 7.57487 3.82635 7.42163C3.66614 7.26838 3.57614 7.06054 3.57614 6.84382C3.57614 6.6271 3.66614 6.41925 3.82635 6.26601C3.98656 6.11276 4.20385 6.02667 4.43043 6.02667H9.55617C9.78274 6.02667 10 6.11276 10.1602 6.26601C10.3205 6.41925 10.4105 6.6271 10.4105 6.84382C10.4105 7.06054 10.3205 7.26838 10.1602 7.42163C10 7.57487 9.78274 7.66096 9.55617 7.66096ZM12.9733 6.02667C13.1423 6.02667 13.3075 6.07459 13.4479 6.16438C13.5884 6.25417 13.6979 6.38179 13.7626 6.53111C13.8272 6.68042 13.8442 6.84472 13.8112 7.00323C13.7782 7.16174 13.6969 7.30735 13.5774 7.42163C13.4579 7.53591 13.3057 7.61373 13.14 7.64526C12.9743 7.67679 12.8025 7.66061 12.6464 7.59876C12.4903 7.53691 12.3569 7.43218 12.263 7.2978C12.1691 7.16342 12.119 7.00543 12.119 6.84382C12.119 6.6271 12.209 6.41925 12.3693 6.26601C12.5295 6.11276 12.7468 6.02667 12.9733 6.02667ZM12.9733 9.29526C13.1423 9.29526 13.3075 9.34318 13.4479 9.43297C13.5884 9.52276 13.6979 9.65038 13.7626 9.7997C13.8272 9.94901 13.8442 10.1133 13.8112 10.2718C13.7782 10.4303 13.6969 10.5759 13.5774 10.6902C13.4579 10.8045 13.3057 10.8823 13.14 10.9138C12.9743 10.9454 12.8025 10.9292 12.6464 10.8673C12.4903 10.8055 12.3569 10.7008 12.263 10.5664C12.1691 10.432 12.119 10.274 12.119 10.1124C12.119 9.89568 12.209 9.68784 12.3693 9.53459C12.5295 9.38135 12.7468 9.29526 12.9733 9.29526ZM8.70188 0.306641C9.82375 0.306641 10.9346 0.518002 11.9711 0.928657C13.0076 1.33931 13.9493 1.94122 14.7426 2.70001C16.3447 4.23246 17.2448 6.3109 17.2448 8.47811C17.2522 10.365 16.5692 12.1949 15.3141 13.6507L17.0227 15.2849C17.1412 15.3999 17.2215 15.5458 17.2534 15.7043C17.2854 15.8628 17.2675 16.0268 17.2021 16.1756C17.1311 16.3227 17.0161 16.4462 16.8716 16.5306C16.7271 16.615 16.5596 16.6564 16.3905 16.6496H8.70188C6.43616 16.6496 4.26324 15.7887 2.66113 14.2562C1.05903 12.7238 0.158974 10.6453 0.158974 8.47811C0.158974 6.3109 1.05903 4.23246 2.66113 2.70001C4.26324 1.16756 6.43616 0.306641 8.70188 0.306641ZM8.70188 15.0153H14.3317L13.5372 14.2553C13.4564 14.1797 13.3922 14.0894 13.3482 13.9898C13.3042 13.8902 13.2813 13.7833 13.2809 13.6752C13.2841 13.4596 13.3762 13.254 13.5372 13.1032C14.6558 12.0344 15.3524 10.6276 15.5083 9.12267C15.6642 7.61769 15.2697 6.10757 14.3921 4.84959C13.5145 3.5916 12.2081 2.66359 10.6954 2.22365C9.18264 1.78371 7.55725 1.85906 6.09611 2.43687C4.63497 3.01468 3.42847 4.0592 2.68217 5.39247C1.93588 6.72574 1.69595 8.26528 2.00328 9.74878C2.3106 11.2323 3.14616 12.568 4.3676 13.5283C5.58904 14.4886 7.12079 15.0141 8.70188 15.0153ZM4.43043 9.29526H9.55617C9.78274 9.29526 10 9.38135 10.1602 9.53459C10.3205 9.68784 10.4105 9.89568 10.4105 10.1124C10.4105 10.3291 10.3205 10.537 10.1602 10.6902C10 10.8435 9.78274 10.9296 9.55617 10.9296H4.43043C4.20385 10.9296 3.98656 10.8435 3.82635 10.6902C3.66614 10.537 3.57614 10.3291 3.57614 10.1124C3.57614 9.89568 3.66614 9.68784 3.82635 9.53459C3.98656 9.38135 4.20385 9.29526 4.43043 9.29526Z"
        fill="#F5F7FB"/>
</svg>
