<svg width="18" height="17" viewBox="0 0 18 17" fill="none" xmlns="http://www.w3.org/2000/svg">
  <path
    d="M11.312 7.55967C10.6268 7.55967 9.95709 7.36081 9.38741 6.98823C8.81773 6.61566 8.37372 6.08611 8.11153 5.46655C7.84934 4.84698 7.78074 4.16523 7.9144 3.50751C8.04807 2.84978 8.37799 2.24562 8.86246 1.77143C9.34694 1.29723 9.96419 0.974302 10.6362 0.843473C11.3082 0.712643 12.0047 0.779789 12.6377 1.03642C13.2707 1.29305 13.8117 1.72764 14.1923 2.28524C14.573 2.84283 14.7762 3.49838 14.7762 4.16899C14.7762 5.06826 14.4112 5.93069 13.7615 6.56656C13.1119 7.20244 12.2307 7.55967 11.312 7.55967ZM11.312 2.47366C10.9694 2.47366 10.6345 2.57309 10.3497 2.75937C10.0649 2.94566 9.84286 3.21043 9.71176 3.52022C9.58067 3.83 9.54636 4.17087 9.6132 4.49974C9.68003 4.8286 9.84499 5.13068 10.0872 5.36778C10.3295 5.60487 10.6381 5.76634 10.9741 5.83176C11.3101 5.89717 11.6583 5.8636 11.9748 5.73528C12.2913 5.60696 12.5618 5.38967 12.7522 5.11087C12.9425 4.83208 13.0441 4.5043 13.0441 4.16899C13.0441 3.71936 12.8616 3.28815 12.5368 2.97021C12.2119 2.65227 11.7714 2.47366 11.312 2.47366ZM4.38368 9.255C3.86982 9.255 3.3675 9.10586 2.94025 8.82643C2.51299 8.547 2.17998 8.14984 1.98333 7.68516C1.78669 7.22049 1.73524 6.70918 1.83549 6.21588C1.93573 5.72259 2.18318 5.26947 2.54653 4.91382C2.90989 4.55818 3.37283 4.31598 3.87681 4.21786C4.3808 4.11974 4.90319 4.17009 5.37794 4.36257C5.85268 4.55504 6.25845 4.88099 6.54394 5.29918C6.82942 5.71738 6.9818 6.20904 6.9818 6.712C6.9818 7.38645 6.70807 8.03327 6.22083 8.51017C5.73359 8.98708 5.07274 9.255 4.38368 9.255ZM4.38368 5.86433C4.21239 5.86433 4.04495 5.91405 3.90254 6.00719C3.76012 6.10033 3.64911 6.23272 3.58357 6.38761C3.51802 6.5425 3.50087 6.71294 3.53428 6.87737C3.5677 7.0418 3.65018 7.19284 3.7713 7.31139C3.89242 7.42994 4.04673 7.51067 4.21472 7.54338C4.38272 7.57609 4.55685 7.5593 4.7151 7.49514C4.87335 7.43098 5.00861 7.32234 5.10377 7.18294C5.19893 7.04354 5.24972 6.87965 5.24972 6.712C5.24972 6.48718 5.15848 6.27158 4.99606 6.11261C4.83365 5.95364 4.61337 5.86433 4.38368 5.86433ZM4.38368 10.1027C5.3434 10.1037 6.27558 10.4168 7.03376 10.9927C7.88204 10.1657 8.96152 9.60305 10.1361 9.37573C11.3106 9.14841 12.5276 9.2666 13.6336 9.7154C14.7397 10.1642 15.6851 10.9235 16.3508 11.8976C17.0165 12.8716 17.3726 14.0168 17.3743 15.1887C17.3743 15.4135 17.283 15.6291 17.1206 15.7881C16.9582 15.947 16.7379 16.0363 16.5082 16.0363C16.2785 16.0363 16.0583 15.947 15.8958 15.7881C15.7334 15.6291 15.6422 15.4135 15.6422 15.1887C15.6422 14.0646 15.186 12.9866 14.3739 12.1917C13.5618 11.3969 12.4604 10.9503 11.312 10.9503C10.1636 10.9503 9.06215 11.3969 8.25008 12.1917C7.43801 12.9866 6.9818 14.0646 6.9818 15.1887C6.9818 15.4135 6.89056 15.6291 6.72814 15.7881C6.56573 15.947 6.34545 16.0363 6.11576 16.0363C5.88607 16.0363 5.66579 15.947 5.50338 15.7881C5.34096 15.6291 5.24972 15.4135 5.24972 15.1887C5.24765 14.1956 5.50397 13.2183 5.99451 12.349C5.61179 12.053 5.15166 11.8684 4.66677 11.8164C4.18188 11.7643 3.69182 11.847 3.25267 12.0548C2.81352 12.2627 2.44302 12.5873 2.18357 12.9916C1.92411 13.3959 1.78618 13.8636 1.78556 14.341C1.78556 14.5658 1.69432 14.7814 1.53191 14.9404C1.36949 15.0994 1.14921 15.1887 0.919525 15.1887C0.689837 15.1887 0.469555 15.0994 0.307142 14.9404C0.144728 14.7814 0.0534859 14.5658 0.0534859 14.341C0.0534859 13.2169 0.509701 12.1389 1.32177 11.3441C2.13384 10.5492 3.23524 10.1027 4.38368 10.1027Z"
    fill="#F5F7FB"/>
</svg>
